<?xml version="1.0" standalone="no"?>
<!DOCTYPE svg PUBLIC "-//W3C//DTD SVG 20010904//EN"
 "http://www.w3.org/TR/2001/REC-SVG-20010904/DTD/svg10.dtd">
<svg version="1.0" xmlns="http://www.w3.org/2000/svg"
 width="602.000000pt" height="602.000000pt" viewBox="0 0 602.000000 602.000000"
 preserveAspectRatio="xMidYMid meet">
<metadata>
Created by potrace 1.14, written by Peter Selinger 2001-2017
</metadata>
<g transform="translate(0.000000,602.000000) scale(0.100000,-0.100000)"
fill="#000000" stroke="none">
<path d="M4320 5569 c-25 -3 -63 -9 -85 -13 -39 -5 -63 -10 -117 -22 -15 -3
-29 -4 -30 -3 -2 1 -12 -3 -24 -9 -11 -6 -32 -13 -45 -16 -30 -6 -174 -54
-214 -71 -16 -8 -59 -26 -95 -40 -85 -35 -268 -127 -349 -176 -34 -22 -65 -39
-68 -39 -2 0 -19 -11 -37 -25 -18 -14 -36 -25 -40 -25 -7 0 -66 -39 -76 -51
-3 -3 -22 -15 -42 -28 -21 -12 -38 -24 -38 -26 0 -2 45 -50 101 -107 55 -56
171 -176 257 -266 86 -90 204 -212 262 -272 116 -119 472 -488 564 -584 32
-33 88 -91 124 -128 64 -65 65 -68 52 -93 -51 -95 -262 -242 -477 -333 -90
-38 -108 -45 -115 -46 -3 -1 -10 -4 -14 -8 -4 -5 -16 -8 -26 -8 -10 0 -26 -4
-36 -10 -9 -5 -46 -19 -82 -31 -62 -20 -75 -23 -130 -34 -14 -3 -36 -8 -50
-11 -54 -13 -281 -12 -352 2 -40 8 -82 16 -93 18 -11 2 -58 17 -105 32 -168
56 -377 177 -545 318 -70 58 -234 222 -285 285 -75 92 -60 90 -126 15 -33 -37
-75 -84 -95 -105 -20 -21 -68 -73 -107 -116 -38 -43 -83 -92 -98 -108 -16 -17
-72 -78 -124 -135 -52 -57 -106 -116 -120 -131 -14 -15 -59 -64 -100 -110 -41
-45 -88 -97 -105 -115 -16 -17 -64 -70 -106 -116 -42 -45 -93 -101 -113 -123
-21 -22 -67 -73 -104 -114 -37 -41 -89 -97 -115 -125 -80 -84 -99 -118 -104
-188 -7 -84 17 -175 67 -258 44 -72 73 -97 133 -115 33 -10 52 -9 90 1 108 28
115 34 534 470 458 478 484 504 507 509 34 8 94 -2 121 -19 46 -30 30 -119
-33 -184 -15 -15 -58 -63 -97 -106 -38 -44 -77 -86 -86 -95 -9 -9 -42 -45 -74
-81 -32 -36 -98 -108 -146 -160 -48 -52 -97 -106 -109 -120 -26 -30 -157 -174
-185 -204 -11 -12 -53 -58 -94 -103 -72 -81 -73 -84 -67 -124 10 -64 41 -144
71 -183 40 -53 72 -69 140 -72 51 -3 71 2 135 33 41 20 77 39 80 43 4 7 156
167 355 375 86 91 327 344 400 421 57 60 81 78 127 94 82 29 109 12 101 -64
-5 -47 -32 -99 -75 -147 -18 -20 -53 -60 -78 -89 -25 -29 -50 -58 -55 -64 -10
-11 -219 -252 -320 -370 -27 -32 -59 -68 -70 -81 -11 -12 -40 -46 -65 -76 -25
-29 -78 -87 -119 -129 -40 -41 -84 -92 -98 -113 -109 -171 92 -332 314 -251
37 13 69 27 72 31 3 5 18 14 33 22 15 8 44 29 63 47 29 26 34 36 27 51 -6 10
-10 20 -10 23 -1 3 -3 12 -6 20 -38 107 -42 296 -8 372 54 122 200 204 364
203 63 0 65 2 64 73 -1 23 1 42 4 42 3 0 5 12 6 28 3 114 89 259 188 317 74
43 155 66 251 70 l90 3 1 29 c4 100 24 189 56 244 21 37 90 109 105 109 7 0
13 3 13 8 0 28 174 65 281 60 l86 -5 11 54 c27 130 192 361 293 411 165 82
491 -85 842 -432 l60 -59 31 18 c17 10 33 21 36 24 3 3 34 30 70 60 318 266
558 656 614 996 3 17 9 48 13 70 15 81 7 383 -12 455 -2 8 -7 29 -10 46 -25
151 -128 406 -236 582 -22 37 -45 76 -52 87 -7 11 -14 22 -17 25 -3 3 -23 28
-44 55 -100 127 -243 244 -383 314 -67 33 -189 76 -244 85 -19 3 -56 9 -82 15
-56 10 -281 11 -347 0z"/>
<path d="M1299 5546 c-2 -2 -29 -7 -59 -10 -30 -3 -65 -8 -77 -11 -13 -3 -33
-7 -45 -10 -92 -20 -339 -119 -358 -144 -3 -3 -16 -12 -30 -20 -138 -75 -381
-304 -490 -459 -105 -149 -195 -349 -216 -476 -3 -21 -8 -48 -11 -60 -3 -11
-7 -77 -8 -146 -3 -148 8 -245 41 -360 8 -30 19 -68 23 -85 29 -107 132 -318
228 -465 50 -76 138 -197 153 -210 3 -3 16 -18 28 -34 12 -15 50 -60 84 -98
35 -39 65 -73 68 -77 3 -3 33 -33 68 -65 l61 -60 21 25 c12 13 58 64 103 113
45 49 91 99 102 112 19 21 154 169 205 224 38 41 182 199 210 230 14 15 61 67
105 115 44 49 88 97 98 109 10 12 55 61 100 110 45 48 93 100 107 116 14 15
63 68 109 118 45 50 93 102 105 116 11 14 26 26 31 28 6 2 44 -35 85 -82 174
-198 415 -412 591 -525 107 -69 262 -147 318 -160 9 -3 42 -11 73 -20 129 -35
318 -35 503 0 17 4 62 17 101 31 121 42 213 97 297 178 42 41 46 49 35 65 -12
16 -167 178 -523 545 -60 62 -191 198 -290 301 -250 260 -277 287 -380 379
-271 241 -577 435 -855 544 -99 38 -190 67 -239 77 -13 2 -30 6 -39 9 -9 3
-34 8 -56 12 -21 3 -48 8 -60 11 -24 6 -312 14 -317 9z"/>
<path d="M4172 3085 c-76 -23 -158 -97 -183 -166 -20 -55 -15 -120 13 -175 26
-52 813 -849 855 -865 43 -17 133 -13 184 9 48 21 103 69 132 115 21 33 38
115 26 123 -5 3 -7 9 -4 14 3 5 -3 33 -13 63 -17 48 -47 82 -283 319 -145 147
-321 325 -390 396 -162 165 -230 199 -337 167z"/>
<path d="M3690 2612 c-94 -11 -191 -82 -231 -169 -23 -49 -18 -127 12 -186 29
-57 808 -842 854 -861 40 -17 140 -12 188 8 46 20 123 95 138 133 19 51 20
110 3 170 -16 56 -26 68 -278 321 -144 145 -319 323 -391 396 -71 73 -143 140
-158 150 -38 23 -106 42 -137 38z"/>
<path d="M3100 2112 c-25 -8 -46 -19 -48 -23 -2 -5 -8 -9 -13 -9 -13 0 -70
-57 -92 -92 -40 -64 -38 -146 7 -221 34 -59 793 -816 834 -834 71 -30 194 -2
259 58 49 46 75 105 75 167 0 103 -13 120 -338 449 -165 166 -336 341 -382
388 -119 121 -199 153 -302 117z"/>
<path d="M2569 1621 c-148 -57 -213 -202 -147 -329 31 -58 788 -817 830 -831
43 -15 95 -14 157 5 64 19 140 90 158 147 15 50 7 139 -16 185 -11 20 -161
180 -333 354 -172 174 -339 344 -370 376 -94 97 -186 128 -279 93z"/>
<path d="M2400 984 c-89 -60 -152 -155 -152 -229 0 -87 79 -183 197 -240 82
-40 155 -49 230 -29 28 8 55 16 60 17 23 6 95 58 95 68 0 6 -33 45 -74 87 -41
42 -132 137 -203 210 l-128 133 -25 -17z"/>
</g>
</svg>
