<?xml version="1.0" encoding="utf-8"?>
<!-- Generator: Adobe Illustrator 25.2.0, SVG Export Plug-In . SVG Version: 6.00 Build 0)  -->
<svg version="1.1" id="Calque_1" xmlns="http://www.w3.org/2000/svg" xmlns:xlink="http://www.w3.org/1999/xlink" x="0px" y="0px"
	 viewBox="0 0 474.58 227.19" style="enable-background:new 0 0 474.58 227.19;" xml:space="preserve">
<style type="text/css">
	.st0{fill:#F49C86;stroke:#F49C86;stroke-miterlimit:10;}
</style>
<path class="st0" d="M2.98,229.68c18.34-25.39,36.79-35.38,50.46-39.76c29.4-9.43,54.82,1.24,87.86-19.08
	c8.35-5.14,6-5.37,13.07-9.54c42.43-25.03,78.89,12,109.04-8.18c8.59-5.75,17.29-20.49,34.69-49.97
	c9.67-16.39,10.82-20.94,17.57-24.53c17.13-9.1,30.96,8.93,61.28,7.27c6.55-0.36,30.05-1.65,45.51-17.72
	c19.29-20.05,10.45-46.91,29.29-58.14c8.15-4.86,24.27-10.14,24.27-3.18c0.06,221.68,0.06,221.68,0.06,221.68L2.98,229.68z"/>
</svg>
