<svg xmlns="http://www.w3.org/2000/svg" viewBox="0 0 822.68 256.52"><defs><style>.cls-1{fill:#f79d86;}.cls-2{opacity:0.47;}.cls-3{fill:#e8a191;}.cls-4{fill:none;stroke:#1f1411;stroke-width:4px;}</style></defs><g id="Calque_2" data-name="Calque 2"><g id="Calque_2-2" data-name="Calque 2"><path class="cls-1" d="M38,141.05S-34,79.9,20.28,24.48C81.65-38.13,155.8,47.13,155.8,47.13l47.78,49.43s-10.3,16.07-40,14.42-60.56-41.19-60.56-41.19Z"/><path class="cls-1" d="M152.92,27.77c1.23-.41,84-64.67,122.75,3.71s-26.37,110.8-26.37,110.8-34.6-36.66-48.19-22.65-12,21.42-12,21.42-28.42-6.18-27.18,22.24c0,0-28-4.12-27.19,26.36,0,0-32.54-2.88-19.77,32.13,0,0-12.77,12.77-23.48,5.36S95.25,209,95.25,209l36.66-42.42s6.18-13.6-7-6.18L84.13,203.25S66,218.07,62.29,192.54l44.9-49.43s6.18-10.3-7-8.24l-43.25,44.9s-11.53,10.29-18.54-.83S35.93,160,35.93,160l66.32-72.5s34.19,47.78,78.26,35.42c0,0,33.78-9.47,41.19-23.89Z"/><path class="cls-1" d="M121.34,228.92l20.59,21.56s-11.26,11-24.58-.28S121.34,228.92,121.34,228.92Z"/><path class="cls-1" d="M122.71,217s-7.64-8.57,1.23-16.34c11-9.61,20.05,3.7,20.05,3.7l32.68,33s5.77,8.51-1.1,15.24A13,13,0,0,1,161,255.42Z"/><path class="cls-1" d="M149,192.81s-7.78-8.72,1.25-16.62c11.18-9.78,20.4,3.77,20.4,3.77l33.24,33.52s5.87,8.67-1.11,15.51A13.21,13.21,0,0,1,188,231.92Z"/><path class="cls-1" d="M175.27,168.92s-7.91-8.87,1.27-16.9c11.37-10,20.75,3.83,20.75,3.83L231.1,190s6,8.81-1.13,15.77a13.43,13.43,0,0,1-15.06,3Z"/><path class="cls-1" d="M201.9,144.76s-7.91-8.87,1.28-16.91c11.37-9.95,20.74,3.84,20.74,3.84l33.82,34.1s6,8.8-1.14,15.77a13.43,13.43,0,0,1-15.06,3Z"/><text/><g class="cls-2"><path class="cls-3" d="M805.4,214.49q-13.86,8.1-24.55,4.42t-17.88-16q-5.9-10.09-6.31-18.06a22.59,22.59,0,0,1,3.59-14,33.52,33.52,0,0,1,11.24-10.25q8.06-4.7,15-3.88A24,24,0,0,1,799,162.24a43.62,43.62,0,0,1,9.83,11.82,5.32,5.32,0,0,1,.32,2.89,17.36,17.36,0,0,1-.72,3.91,4,4,0,0,1-1.28,2.25l-26,15.17q4.08,5.82,8.53,6.3a15.43,15.43,0,0,0,9.44-2.43,21.39,21.39,0,0,0,5.29-4.18,49.68,49.68,0,0,0,3.25-4,8,8,0,0,1,1.95-2.16,3.76,3.76,0,0,1,3.24.16,19.2,19.2,0,0,1,4,2.14,8.69,8.69,0,0,1,2.54,2.35,4.61,4.61,0,0,1-.06,4.47,21,21,0,0,1-3.65,5.21,42.77,42.77,0,0,1-5.35,4.9A47.06,47.06,0,0,1,805.4,214.49Zm-30.11-26.3,16.51-9.64a16.55,16.55,0,0,0-6-6.38q-3.43-1.89-7.3.37a9.83,9.83,0,0,0-4.43,5.53Q772.75,181.75,775.29,188.19Z"/></g><g class="cls-2"><path class="cls-3" d="M305.53,198.27a5.5,5.5,0,0,1-4.72-2.25l-14.52-26c-.47-.78-.92-1.55-1.36-2.3s-.84-1.51-1.24-2.3l-.47.12v48.87c0,2.52-2.36,3.77-7.08,3.77h-3.42c-4.72,0-7.09-1.25-7.09-3.77V138.89c0-2.52,2.37-3.78,7.09-3.78H279a13.38,13.38,0,0,1,4.55.71,5.14,5.14,0,0,1,2.89,2.48L306,173.24a7,7,0,0,0,.59.95,4,4,0,0,1,.59,1.06,6.17,6.17,0,0,1,.54-1.06c.19-.32.37-.63.53-.95L328.2,138.3a5.11,5.11,0,0,1,2.89-2.48,13.32,13.32,0,0,1,4.54-.71h6.14q7.08,0,7.08,3.78v75.55c0,2.52-2.36,3.77-7.08,3.77h-3.42c-4.72,0-7.09-1.25-7.09-3.77V165.57l-.47-.12c-.39.79-.8,1.55-1.24,2.3s-.88,1.52-1.35,2.3l-14.52,26a5.52,5.52,0,0,1-4.72,2.25Z"/><path class="cls-3" d="M392.76,218.92q-16,0-23.43-8.56T362,187.52q0-11.69,3.66-18.76a22.49,22.49,0,0,1,10.15-10.27,33.29,33.29,0,0,1,14.88-3.19q9.32,0,14.87,4.19a23.91,23.91,0,0,1,8.09,11.09,43.78,43.78,0,0,1,2.53,15.17,5.36,5.36,0,0,1-1.18,2.66,17.72,17.72,0,0,1-2.59,3,4,4,0,0,1-2.25,1.3H380q.6,7.08,4.19,9.74a15.43,15.43,0,0,0,9.39,2.65,21.48,21.48,0,0,0,6.67-.94,47.81,47.81,0,0,0,4.84-1.83,8.11,8.11,0,0,1,2.77-.89c.87,0,1.77.59,2.72,1.77a19.79,19.79,0,0,1,2.42,3.9,8.65,8.65,0,0,1,1,3.3,4.61,4.61,0,0,1-2.3,3.84,21.05,21.05,0,0,1-5.79,2.66,44,44,0,0,1-7.08,1.53A48.8,48.8,0,0,1,392.76,218.92ZM380,181h19.13a16.51,16.51,0,0,0-2-8.56q-2-3.36-6.49-3.36a9.88,9.88,0,0,0-6.61,2.54Q381.08,174.19,380,181Z"/><path class="cls-3" d="M435,218.21c-4.72,0-7.08-1.25-7.08-3.77V177a86.56,86.56,0,0,0-.36-9.09,45.36,45.36,0,0,0-.71-4.78,13.41,13.41,0,0,1-.35-2.78q0-1.05,1.59-1.77a19.73,19.73,0,0,1,3.9-1.18,38.57,38.57,0,0,1,4.49-.65c1.45-.11,2.53-.17,3.24-.17a3.1,3.1,0,0,1,2.77,1.3,8.08,8.08,0,0,1,1.24,3.06c.24,1.19.48,2.29.71,3.31a25.22,25.22,0,0,1,7.2-6.2,19.72,19.72,0,0,1,10.39-2.77q8.85,0,13.1,4.66t4.25,14.46v40c0,2.52-2.36,3.77-7.08,3.77H469c-4.72,0-7.08-1.25-7.08-3.77V177a8.26,8.26,0,0,0-1.59-5.37q-1.59-2-5.49-2a8.05,8.05,0,0,0-6,2.42,20.14,20.14,0,0,0-3.42,4.43v37.89c0,2.52-2.36,3.77-7.09,3.77Z"/><path class="cls-3" d="M512.69,218.92a22.48,22.48,0,0,1-7.38-1.12,13.18,13.18,0,0,1-5.43-3.48,15.16,15.16,0,0,1-3.3-6,28.85,28.85,0,0,1-1.12-8.56V170.05h-1.89c-2.36,0-3.54-2-3.54-5.9v-2q0-5.91,3.54-5.91h1.89L497,145c.39-2.52,2.52-3.78,6.37-3.78H507q5.91,0,5.91,3.78v11.21h5.78q3.54,0,3.54,5.91v2c0,3.94-1.18,5.9-3.54,5.9h-5.78v30a6,6,0,0,0,1,3.83,3.92,3.92,0,0,0,3.24,1.24,7.83,7.83,0,0,0,1.78-.23,6.28,6.28,0,0,1,1.41-.24q1.18,0,2,2a20.91,20.91,0,0,1,1.24,4,20.34,20.34,0,0,1,.41,2.54,4.26,4.26,0,0,1-2.06,4,11.54,11.54,0,0,1-4.73,1.54A43.62,43.62,0,0,1,512.69,218.92Z"/><path class="cls-3" d="M560.38,218.92q-14.05,0-21.37-8.26t-7.32-23.61q0-15.47,7.32-23.61t21.37-8.14q14,0,21.3,8.14t7.26,23.61q0,15.34-7.26,23.61T560.38,218.92Zm0-13.81a8.79,8.79,0,0,0,8.26-4.6q2.6-4.6,2.6-13.46t-2.6-13.4a8.84,8.84,0,0,0-8.26-4.54,9,9,0,0,0-8.33,4.54q-2.65,4.54-2.65,13.4t2.65,13.46A8.94,8.94,0,0,0,560.38,205.11Z"/><path class="cls-3" d="M608.3,218.21c-4.72,0-7.08-1.25-7.08-3.77V177a86.56,86.56,0,0,0-.36-9.09c-.23-2.13-.47-3.72-.7-4.78a12.84,12.84,0,0,1-.36-2.78q0-1.05,1.59-1.77a19.94,19.94,0,0,1,3.9-1.18,38.88,38.88,0,0,1,4.49-.65c1.45-.11,2.53-.17,3.24-.17a3.12,3.12,0,0,1,2.78,1.3A8.25,8.25,0,0,1,617,161c.23,1.19.47,2.29.7,3.31a25.41,25.41,0,0,1,4.84-6.2,11.26,11.26,0,0,1,8-2.77q4.36,0,5.55,1.77a8.19,8.19,0,0,1,1.18,4.6,24.43,24.43,0,0,1-.41,3.49,21.14,21.14,0,0,1-1.24,4.42c-.56,1.34-1.22,2-2,2a7.37,7.37,0,0,1-2.48-.47,9.69,9.69,0,0,0-7.32.53,12.42,12.42,0,0,0-3.19,2.36,14.58,14.58,0,0,0-2,2.54v37.89c0,2.52-2.36,3.77-7.08,3.77Z"/><path class="cls-3" d="M641,218.21c-4.72,0-7.08-1.25-7.08-3.77V203.58q0-3.78,7.08-3.78h3.78q7.08,0,7.08,3.78v10.86c0,2.52-2.36,3.77-7.08,3.77Z"/></g><path class="cls-4" d="M309.87,191.76a5.49,5.49,0,0,1-4.72-2.24l-14.52-26c-.48-.78-.93-1.55-1.36-2.3s-.85-1.51-1.24-2.3l-.47.12v48.87q0,3.76-7.09,3.77h-3.42q-7.08,0-7.08-3.77V132.39q0-3.78,7.08-3.78h6.26a13.32,13.32,0,0,1,4.54.71,5.14,5.14,0,0,1,2.89,2.48l19.6,34.94a6.07,6.07,0,0,0,.59.94,4.6,4.6,0,0,1,.59,1.07,6.67,6.67,0,0,1,.53-1.07c.2-.31.37-.63.53-.94l19.95-34.94a5.14,5.14,0,0,1,2.89-2.48,13.38,13.38,0,0,1,4.55-.71h6.14q7.08,0,7.08,3.78v75.55q0,3.76-7.08,3.77h-3.43q-7.08,0-7.08-3.77V159.07l-.47-.12c-.4.79-.81,1.55-1.24,2.3s-.89,1.52-1.36,2.3l-14.52,26a5.49,5.49,0,0,1-4.72,2.24Z"/><path class="cls-4" d="M397.1,212.42q-16.07,0-23.43-8.56T366.29,181q0-11.69,3.66-18.77A22.54,22.54,0,0,1,380.1,152,33.38,33.38,0,0,1,395,148.8q9.33,0,14.88,4.19a23.89,23.89,0,0,1,8.08,11.09,43.74,43.74,0,0,1,2.54,15.17,5.45,5.45,0,0,1-1.18,2.66,17.77,17.77,0,0,1-2.6,3,4,4,0,0,1-2.24,1.3h-30.1q.58,7.08,4.19,9.73a15.42,15.42,0,0,0,9.38,2.66,21.48,21.48,0,0,0,6.67-.94,47.81,47.81,0,0,0,4.84-1.83,8.14,8.14,0,0,1,2.78-.89,3.78,3.78,0,0,1,2.71,1.77,19.33,19.33,0,0,1,2.42,3.9,8.48,8.48,0,0,1,1,3.3,4.59,4.59,0,0,1-2.3,3.84,20.56,20.56,0,0,1-5.78,2.65,44,44,0,0,1-7.08,1.54A48.94,48.94,0,0,1,397.1,212.42Zm-12.75-37.89h19.12a16.58,16.58,0,0,0-2-8.56q-2-3.36-6.5-3.36a9.85,9.85,0,0,0-6.61,2.54Q385.41,167.69,384.35,174.53Z"/><path class="cls-4" d="M439.35,211.71q-7.08,0-7.08-3.77V170.52a90,90,0,0,0-.35-9.09,48.21,48.21,0,0,0-.71-4.78,12.83,12.83,0,0,1-.35-2.78q0-1.06,1.59-1.77a19.62,19.62,0,0,1,3.89-1.18,38.88,38.88,0,0,1,4.49-.65c1.46-.12,2.54-.17,3.25-.17a3.13,3.13,0,0,1,2.77,1.29,8.37,8.37,0,0,1,1.24,3.07c.24,1.18.47,2.29.71,3.31a25.22,25.22,0,0,1,7.2-6.2,19.72,19.72,0,0,1,10.39-2.77q8.85,0,13.1,4.66t4.25,14.46v40q0,3.76-7.08,3.77h-3.31q-7.08,0-7.08-3.77V170.52a8.19,8.19,0,0,0-1.6-5.37q-1.59-2-5.49-2a8,8,0,0,0-6,2.42,20.13,20.13,0,0,0-3.43,4.42v37.9q0,3.76-7.08,3.77Z"/><path class="cls-4" d="M517,212.42a22.42,22.42,0,0,1-7.37-1.12,13,13,0,0,1-5.43-3.48,15.37,15.37,0,0,1-3.31-6,28.9,28.9,0,0,1-1.12-8.56V163.55H497.9c-2.36,0-3.54-2-3.54-5.9v-2q0-5.89,3.54-5.9h1.89l1.54-11.21q.59-3.78,6.37-3.78h3.66q5.89,0,5.9,3.78v11.21H523q3.56,0,3.55,5.9v2c0,3.94-1.18,5.9-3.55,5.9h-5.78v30a6,6,0,0,0,1,3.84,3.93,3.93,0,0,0,3.25,1.24,7.21,7.21,0,0,0,1.77-.24,6.81,6.81,0,0,1,1.42-.23c.78,0,1.45.65,2,2a20,20,0,0,1,1.24,4,19.24,19.24,0,0,1,.42,2.54,4.26,4.26,0,0,1-2.07,4,11.54,11.54,0,0,1-4.72,1.54A43.79,43.79,0,0,1,517,212.42Z"/><path class="cls-4" d="M564.71,212.42q-14,0-21.36-8.26T536,180.55q0-15.47,7.32-23.61t21.36-8.14q14.06,0,21.31,8.14t7.26,23.61q0,15.34-7.26,23.61T564.71,212.42Zm0-13.81A8.8,8.8,0,0,0,573,194q2.61-4.6,2.6-13.46t-2.6-13.4q-2.6-4.54-8.26-4.54a8.94,8.94,0,0,0-8.32,4.54q-2.65,4.54-2.66,13.4T556.39,194A8.93,8.93,0,0,0,564.71,198.61Z"/><path class="cls-4" d="M612.64,211.71q-7.1,0-7.09-3.77V170.52a90,90,0,0,0-.35-9.09,48.21,48.21,0,0,0-.71-4.78,13.49,13.49,0,0,1-.35-2.78q0-1.06,1.59-1.77a19.52,19.52,0,0,1,3.9-1.18,38.4,38.4,0,0,1,4.48-.65c1.46-.12,2.54-.17,3.25-.17a3.12,3.12,0,0,1,2.77,1.29,8.37,8.37,0,0,1,1.24,3.07c.24,1.18.47,2.29.71,3.31a25.17,25.17,0,0,1,4.84-6.2,11.23,11.23,0,0,1,8-2.77q4.37,0,5.54,1.77a8.11,8.11,0,0,1,1.18,4.6,22.79,22.79,0,0,1-.41,3.48,21.07,21.07,0,0,1-1.24,4.43q-.82,2-2,2a7.11,7.11,0,0,1-2.47-.48,9.13,9.13,0,0,0-3.07-.47,8.87,8.87,0,0,0-4.25,1,12.25,12.25,0,0,0-3.19,2.36,15,15,0,0,0-2,2.53v37.9q0,3.76-7.08,3.77Z"/><path class="cls-4" d="M645.33,211.71q-7.08,0-7.08-3.77V197.07q0-3.76,7.08-3.77h3.78q7.08,0,7.08,3.77v10.87q0,3.76-7.08,3.77Z"/><g class="cls-2"><path class="cls-3" d="M672.72,216.05q-7.08,0-7.08-3.78V174.85a90.28,90.28,0,0,0-.35-9.09c-.24-2.12-.48-3.72-.71-4.78a12.83,12.83,0,0,1-.36-2.77c0-.71.54-1.3,1.6-1.77a18.37,18.37,0,0,1,3.89-1.18,36.82,36.82,0,0,1,4.49-.65c1.45-.12,2.54-.18,3.25-.18a3.11,3.11,0,0,1,2.77,1.3,8.37,8.37,0,0,1,1.24,3.07c.23,1.18.47,2.28.71,3.3a25.44,25.44,0,0,1,7.14-6.19,19.42,19.42,0,0,1,10.33-2.78,24,24,0,0,1,7.14,1,12.93,12.93,0,0,1,5.13,2.95,13.58,13.58,0,0,1,3.31,5.07,26.27,26.27,0,0,1,7.49-6.19,20.91,20.91,0,0,1,10.69-2.78,24,24,0,0,1,7.73,1.12,12.2,12.2,0,0,1,5.31,3.49,15.58,15.58,0,0,1,3.13,6,30.35,30.35,0,0,1,1.06,8.55v40q0,3.78-7.08,3.78h-3.31q-7.08,0-7.08-3.78V174.85a8.49,8.49,0,0,0-1.53-5.37q-1.54-1.95-5.43-1.95a8.35,8.35,0,0,0-4.49,1.18,10.76,10.76,0,0,0-3.07,2.84,21.64,21.64,0,0,0-1.83,2.95,8.81,8.81,0,0,1-.88,1.53v-9.56a21.21,21.21,0,0,1,.7,3.07,19.85,19.85,0,0,1,.24,3.07v39.66q0,3.78-7.08,3.78h-3.31q-7.08,0-7.08-3.78V174.85a8.49,8.49,0,0,0-1.53-5.37q-1.54-1.95-5.43-1.95a8.46,8.46,0,0,0-3.31.65,9,9,0,0,0-2.66,1.71,15,15,0,0,0-1.94,2.25,24,24,0,0,0-1.42,2.24v37.89q0,3.78-7.08,3.78Z"/></g><path class="cls-4" d="M679.23,212.8c-4.72,0-7.09-1.26-7.09-3.78V171.6a87.1,87.1,0,0,0-.35-9.09c-.24-2.12-.47-3.72-.71-4.78a13.4,13.4,0,0,1-.35-2.77c0-.71.53-1.3,1.59-1.78a19.52,19.52,0,0,1,3.9-1.18,36.32,36.32,0,0,1,4.48-.64c1.46-.12,2.54-.18,3.25-.18a3.1,3.1,0,0,1,2.77,1.3,8.06,8.06,0,0,1,1.24,3.07c.24,1.18.47,2.28.71,3.3a25.47,25.47,0,0,1,7.14-6.2,19.5,19.5,0,0,1,10.33-2.77,24.33,24.33,0,0,1,7.14.94,13.06,13.06,0,0,1,5.14,3,13.61,13.61,0,0,1,3.3,5.07,26.2,26.2,0,0,1,7.5-6.2,20.94,20.94,0,0,1,10.68-2.77,23.66,23.66,0,0,1,7.73,1.12,12.27,12.27,0,0,1,5.31,3.48,15.65,15.65,0,0,1,3.13,6,30.47,30.47,0,0,1,1.06,8.56v40q0,3.78-7.08,3.78h-3.3q-7.1,0-7.09-3.78V171.6a8.49,8.49,0,0,0-1.53-5.37c-1-1.3-2.83-1.95-5.43-1.95a8.37,8.37,0,0,0-4.49,1.18,10.73,10.73,0,0,0-3.07,2.83,25.41,25.41,0,0,0-1.83,3,8,8,0,0,1-.88,1.54v-9.56a22.67,22.67,0,0,1,.71,3.07,21,21,0,0,1,.23,3.07V209q0,3.78-7.08,3.78H713q-7.1,0-7.09-3.78V171.6a8.49,8.49,0,0,0-1.53-5.37q-1.53-1.95-5.43-1.95a8.5,8.5,0,0,0-3.31.65,8.63,8.63,0,0,0-2.65,1.71,15,15,0,0,0-2,2.24c-.55.79-1,1.54-1.42,2.25V209q0,3.78-7.08,3.78Z"/><path class="cls-4" d="M806.06,210.4q-13.86,8.08-24.55,4.42t-17.88-16q-5.89-10.09-6.3-18.05a22.46,22.46,0,0,1,3.59-14,33.23,33.23,0,0,1,11.24-10.25q8-4.7,15-3.88a23.9,23.9,0,0,1,12.58,5.51A43.68,43.68,0,0,1,809.53,170a5.4,5.4,0,0,1,.32,2.89,18.05,18.05,0,0,1-.73,3.91,4,4,0,0,1-1.28,2.25l-26,15.17q4.08,5.82,8.53,6.3a15.36,15.36,0,0,0,9.44-2.44,21.6,21.6,0,0,0,5.29-4.17,50.05,50.05,0,0,0,3.26-4,7.93,7.93,0,0,1,1.95-2.17,3.81,3.81,0,0,1,3.23.16A20.05,20.05,0,0,1,817.6,190a8.49,8.49,0,0,1,2.53,2.35,4.58,4.58,0,0,1-.06,4.47,20.44,20.44,0,0,1-3.65,5.21,44.11,44.11,0,0,1-5.34,4.89A48.38,48.38,0,0,1,806.06,210.4ZM776,184.1l16.52-9.64a16.49,16.49,0,0,0-6.05-6.38q-3.43-1.89-7.3.37a9.85,9.85,0,0,0-4.43,5.52Q773.42,177.66,776,184.1Z"/></g></g></svg>