<svg version="1.2" baseProfile="tiny-ps" xmlns="http://www.w3.org/2000/svg" viewBox="0 0 301 257" width="301" height="257">
	<title>LogoMentormeFichier_1-svg</title>
	<style>
		tspan { white-space:pre }
		.shp0 { fill: #f79d86 } 
	</style>
	<g id="Calque_2">
		<g id="Calque_2-2">
			<path id="Layer" class="shp0" d="M38 141.05C38 141.05 -34 79.9 20.28 24.48C81.65 -38.13 155.8 47.13 155.8 47.13L203.58 96.56C203.58 96.56 193.28 112.63 163.58 110.98C133.88 109.33 103.02 69.79 103.02 69.79L38 141.05Z" />
			<path id="Layer" class="shp0" d="M152.92 27.77C154.15 27.36 236.92 -36.9 275.67 31.48C314.42 99.86 249.3 142.28 249.3 142.28C249.3 142.28 214.7 105.62 201.11 119.63C187.52 133.64 189.11 141.05 189.11 141.05C189.11 141.05 160.69 134.87 161.93 163.29C161.93 163.29 133.93 159.17 134.74 189.65C134.74 189.65 102.2 186.77 114.97 221.78C114.97 221.78 102.2 234.55 91.49 227.14C80.78 219.73 95.25 209 95.25 209L131.91 166.58C131.91 166.58 138.09 152.98 124.91 160.4L84.13 203.25C84.13 203.25 66 218.07 62.29 192.54L107.19 143.11C107.19 143.11 113.37 132.81 100.19 134.87L56.94 179.77C56.94 179.77 45.41 190.06 38.4 178.94C31.39 167.82 35.93 160 35.93 160L102.25 87.5C102.25 87.5 136.44 135.28 180.51 122.92C180.51 122.92 214.29 113.45 221.7 99.03L152.92 27.77Z" />
			<path id="Layer" class="shp0" d="M121.34 228.92L141.93 250.48C141.93 250.48 130.67 261.48 117.35 250.2C104.03 238.92 121.34 228.92 121.34 228.92Z" />
			<path id="Layer" class="shp0" d="M122.71 217C122.71 217 115.07 208.43 123.94 200.66C134.94 191.05 143.99 204.36 143.99 204.36L176.67 237.36C176.67 237.36 182.44 245.87 175.57 252.6C174.65 253.54 173.59 254.34 172.43 254.97C171.27 255.6 170.02 256.04 168.73 256.29C167.43 256.54 166.11 256.6 164.8 256.45C163.49 256.3 162.21 255.95 161 255.42L122.71 217Z" />
			<path id="Layer" class="shp0" d="M149 192.81C149 192.81 141.22 184.09 150.25 176.19C161.43 166.41 170.65 179.96 170.65 179.96L203.89 213.48C203.89 213.48 209.76 222.15 202.78 228.99C201.85 229.95 200.78 230.77 199.6 231.41C198.43 232.05 197.16 232.51 195.85 232.77C194.54 233.03 193.19 233.09 191.86 232.94C190.53 232.8 189.23 232.46 188 231.92L149 192.81Z" />
			<path id="Layer" class="shp0" d="M175.27 168.92C175.27 168.92 167.36 160.05 176.54 152.02C187.91 142.02 197.29 155.85 197.29 155.85L231.1 190C231.1 190 237.1 198.81 229.97 205.77C229.02 206.75 227.93 207.59 226.74 208.24C225.54 208.9 224.25 209.37 222.91 209.63C221.57 209.9 220.2 209.96 218.84 209.82C217.49 209.67 216.16 209.32 214.91 208.77L175.27 168.92Z" />
			<path id="Layer" class="shp0" d="M201.9 144.76C201.9 144.76 193.99 135.89 203.18 127.85C214.55 117.9 223.92 131.69 223.92 131.69L257.74 165.79C257.74 165.79 263.74 174.59 256.6 181.56C255.65 182.54 254.56 183.38 253.37 184.03C252.17 184.69 250.88 185.16 249.54 185.42C248.2 185.69 246.83 185.75 245.47 185.61C244.12 185.46 242.79 185.11 241.54 184.56L201.9 144.76Z" />
		</g>
	</g>
</svg>